<svg width="16" height="15" viewBox="0 0 16 15" fill="none" xmlns="http://www.w3.org/2000/svg">
<g clip-path="url(#clip0_11_11)">
<path d="M14.7202 4.9136H13.7018C13.8214 5.5848 13.5342 6.2924 12.9202 6.6724C12.6488 6.8402 12.3376 6.9288 12.0194 6.9288C11.421 6.9288 10.876 6.6252 10.5614 6.1168C10.339 5.7572 10.267 5.3266 10.3414 4.9136H5.6586C5.7326 5.3266 5.6606 5.7572 5.4384 6.117C5.1242 6.6252 4.5792 6.9288 3.9808 6.9288C3.6626 6.9288 3.3512 6.84 3.0796 6.6724C2.4656 6.2924 2.1784 5.585 2.2982 4.9136H1.2798C0.5728 4.9136 0 5.48641 0 6.19341C0 6.9 0.5728 7.4728 1.2798 7.4728H1.421L2.3596 13.1806C2.458 13.7778 2.974 14.2162 3.5794 14.2162H12.4208C13.0262 14.2162 13.5422 13.7778 13.6404 13.1806L14.5786 7.4728H14.7202C15.427 7.4728 16 6.9 16 6.19341C16 5.48641 15.427 4.9136 14.7202 4.9136ZM5.457 12.7354C5.4184 12.741 5.38 12.744 5.3422 12.744C4.9686 12.744 4.6414 12.4704 4.5838 12.0898L4.0524 8.5474C3.9894 8.128 4.2784 7.737 4.6978 7.6742C5.1178 7.613 5.5078 7.9002 5.571 8.3194L6.1026 11.8622C6.1654 12.2816 5.8764 12.6724 5.457 12.7354ZM8.768 11.976C8.768 12.4004 8.4244 12.744 8.0004 12.744C7.5762 12.744 7.2328 12.4002 7.2328 11.976V8.4332C7.2328 8.0094 7.5762 7.6654 8.0004 7.6654C8.4244 7.6654 8.768 8.0092 8.768 8.4332V11.976ZM11.948 8.5474L11.4162 12.0898C11.359 12.4706 11.0316 12.744 10.6582 12.744C10.6202 12.744 10.582 12.741 10.5432 12.7354C10.1238 12.6724 9.8348 12.2814 9.8978 11.8622L10.4294 8.3194C10.4926 7.9 10.881 7.611 11.3026 7.6742C11.722 7.737 12.0108 8.128 11.948 8.5474Z" fill="#868900"/>
<path d="M3.34901 6.237C3.54581 6.359 3.76461 6.417 3.98061 6.417C4.38281 6.417 4.77621 6.215 5.00281 5.8478C5.21181 5.5096 5.22981 5.1096 5.09201 4.7672L7.37201 1.0824C7.57801 0.7492 7.47501 0.3128 7.14181 0.1064C7.02581 0.0346 6.89681 0 6.76961 0C6.53221 0 6.30021 0.1194 6.16561 0.3366L3.88661 4.0212C3.51881 4.0508 3.16881 4.2448 2.95981 4.5828C2.61041 5.1474 2.78521 5.888 3.34901 6.237Z" fill="#868900"/>
<path d="M10.908 4.7672C10.7702 5.1096 10.7878 5.5096 10.997 5.8478C11.224 6.215 11.617 6.417 12.0196 6.417C12.2356 6.417 12.4542 6.359 12.6512 6.237C13.215 5.888 13.3894 5.1474 13.0402 4.583C12.8316 4.245 12.4814 4.0508 12.114 4.0214L9.83401 0.3366C9.69981 0.1192 9.46781 0 9.23021 0C9.10321 0 8.97421 0.0346 8.85781 0.1064C8.52481 0.3128 8.42261 0.7492 8.62781 1.0824L10.908 4.7672Z" fill="#868900"/>
</g>
<defs>
<clipPath id="clip0_11_11">
<rect width="16" height="14.2162" fill="white"/>
</clipPath>
</defs>
</svg>
