<svg width="67" height="12" viewBox="0 0 67 12" fill="none" xmlns="http://www.w3.org/2000/svg">
<path d="M11.9453 8.70312C11.9453 9.10417 11.8932 9.46615 11.7891 9.78906C11.6901 10.1068 11.5573 10.388 11.3906 10.6328C11.224 10.8776 11.0286 11.0859 10.8047 11.2578C10.5807 11.4297 10.349 11.5703 10.1094 11.6797C9.86979 11.7891 9.625 11.8698 9.375 11.9219C9.13021 11.974 8.89844 12 8.67969 12H0.84375V9.96875H8.67969C9.07031 9.96875 9.3724 9.85417 9.58594 9.625C9.80469 9.39583 9.91406 9.08854 9.91406 8.70312C9.91406 8.51562 9.88542 8.34375 9.82812 8.1875C9.77083 8.03125 9.6875 7.89583 9.57812 7.78125C9.47396 7.66667 9.34375 7.57812 9.1875 7.51562C9.03646 7.45312 8.86719 7.42188 8.67969 7.42188H4.00781C3.67969 7.42188 3.32552 7.36458 2.94531 7.25C2.5651 7.13021 2.21094 6.9401 1.88281 6.67969C1.5599 6.41927 1.28906 6.07812 1.07031 5.65625C0.856771 5.23438 0.75 4.71875 0.75 4.10938C0.75 3.5 0.856771 2.98698 1.07031 2.57031C1.28906 2.14844 1.5599 1.80729 1.88281 1.54688C2.21094 1.28125 2.5651 1.09115 2.94531 0.976562C3.32552 0.856771 3.67969 0.796875 4.00781 0.796875H10.9219V2.82812H4.00781C3.6224 2.82812 3.32031 2.94531 3.10156 3.17969C2.88802 3.41406 2.78125 3.72396 2.78125 4.10938C2.78125 4.5 2.88802 4.8099 3.10156 5.03906C3.32031 5.26302 3.6224 5.375 4.00781 5.375H8.69531C8.91406 5.38021 9.14583 5.41146 9.39062 5.46875C9.63542 5.52083 9.8776 5.60417 10.1172 5.71875C10.362 5.83333 10.5938 5.97917 10.8125 6.15625C11.0312 6.32812 11.224 6.53646 11.3906 6.78125C11.5625 7.02604 11.6979 7.30729 11.7969 7.625C11.8958 7.94271 11.9453 8.30208 11.9453 8.70312Z" fill="#B7B9A3"/>
<path d="M15.6797 5.375H22.8125V0.796875H24.8438V12H22.8125V7.42188H15.6797V12H13.6484V0.796875H15.6797V5.375Z" fill="#B7B9A3"/>
<path d="M29.2734 12H27.2422V0.796875H29.2734V12Z" fill="#B7B9A3"/>
<path d="M40.8594 7.42188H34.4453V5.375H40.8594V7.42188ZM41.7734 12H34.4453C34.1641 12 33.8568 11.9505 33.5234 11.8516C33.1901 11.7526 32.8802 11.5911 32.5938 11.3672C32.3125 11.138 32.0755 10.8438 31.8828 10.4844C31.6953 10.1198 31.6016 9.67448 31.6016 9.14844V1.82031C31.6016 1.67969 31.6276 1.54688 31.6797 1.42188C31.7318 1.29688 31.8021 1.1875 31.8906 1.09375C31.9844 1 32.0938 0.927083 32.2188 0.875C32.3438 0.822917 32.4792 0.796875 32.625 0.796875H41.7734V2.82812H33.6328V9.14844C33.6328 9.41406 33.7031 9.61719 33.8438 9.75781C33.9844 9.89844 34.1901 9.96875 34.4609 9.96875H41.7734V12Z" fill="#B7B9A3"/>
<path d="M54.0312 12H44.7656C44.6198 12 44.4844 11.974 44.3594 11.9219C44.2344 11.8698 44.125 11.7995 44.0312 11.7109C43.9427 11.6172 43.8724 11.5078 43.8203 11.3828C43.7682 11.2578 43.7422 11.1224 43.7422 10.9766V0.796875H45.7734V9.96875H54.0312V12Z" fill="#B7B9A3"/>
<path d="M66.7031 7.3125C66.7031 7.99479 66.5833 8.6224 66.3438 9.19531C66.1094 9.76823 65.7839 10.263 65.3672 10.6797C64.9505 11.0911 64.4557 11.4141 63.8828 11.6484C63.3099 11.8828 62.6875 12 62.0156 12H56.5312C56.3854 12 56.25 11.974 56.125 11.9219C56 11.8698 55.8906 11.7995 55.7969 11.7109C55.7083 11.6172 55.638 11.5078 55.5859 11.3828C55.5339 11.2578 55.5078 11.1224 55.5078 10.9766V1.82031C55.5078 1.67969 55.5339 1.54688 55.5859 1.42188C55.638 1.29688 55.7083 1.1875 55.7969 1.09375C55.8906 1 56 0.927083 56.125 0.875C56.25 0.822917 56.3854 0.796875 56.5312 0.796875H62.0156C62.6875 0.796875 63.3099 0.914062 63.8828 1.14844C64.4557 1.38281 64.9505 1.70833 65.3672 2.125C65.7839 2.53646 66.1094 3.03125 66.3438 3.60938C66.5833 4.18229 66.7031 4.80729 66.7031 5.48438V7.3125ZM64.6719 5.48438C64.6719 5.08854 64.6068 4.72656 64.4766 4.39844C64.3516 4.07031 64.1719 3.79167 63.9375 3.5625C63.7031 3.32812 63.4219 3.14844 63.0938 3.02344C62.7708 2.89323 62.4115 2.82812 62.0156 2.82812H57.5391V9.96875H62.0156C62.4115 9.96875 62.7708 9.90625 63.0938 9.78125C63.4219 9.65104 63.7031 9.47135 63.9375 9.24219C64.1719 9.00781 64.3516 8.72917 64.4766 8.40625C64.6068 8.07812 64.6719 7.71354 64.6719 7.3125V5.48438Z" fill="#B7B9A3"/>
</svg>
